<svg width="40" height="40" viewBox="0 0 40 40" fill="none" xmlns="http://www.w3.org/2000/svg">
<circle cx="20" cy="20" r="20" fill="#F0F0F6"/>
<g clip-path="url(#clip0_2_590)">
<path d="M28.5 15.287V15.5H23V11H23.2603C23.5338 11 23.7962 11.0889 23.9896 11.2471L28.198 14.6904C28.3913 14.8486 28.5 15.0632 28.5 15.287ZM22.6562 16.625C22.0891 16.625 21.625 16.2453 21.625 15.7812V11H13.0312C12.4617 11 12 11.3778 12 11.8438V28.1562C12 28.6222 12.4617 29 13.0312 29H27.4688C28.0383 29 28.5 28.6222 28.5 28.1562V16.625H22.6562ZM17.294 25.0803C17.2732 25.0984 17.2482 25.1131 17.2204 25.1234C17.1926 25.1337 17.1627 25.1394 17.1322 25.1402C17.1018 25.141 17.0714 25.1368 17.0429 25.1281C17.0144 25.1193 16.9883 25.106 16.966 25.0889L14.1788 22.951C14.1557 22.9332 14.1372 22.9118 14.1246 22.888C14.112 22.8641 14.1055 22.8384 14.1055 22.8125C14.1055 22.7865 14.112 22.7608 14.1246 22.737C14.1372 22.7132 14.1557 22.6917 14.1788 22.674L16.966 20.5361C16.9883 20.519 17.0144 20.5057 17.0429 20.4969C17.0714 20.4881 17.1018 20.484 17.1322 20.4848C17.1627 20.4856 17.1926 20.4913 17.2204 20.5016C17.2482 20.5119 17.2732 20.5265 17.294 20.5447L18.1353 21.2789C18.1566 21.2975 18.173 21.3194 18.1838 21.3432C18.1945 21.3671 18.1993 21.3925 18.1978 21.4179C18.1963 21.4433 18.1886 21.4682 18.1751 21.4911C18.1616 21.514 18.1426 21.5345 18.1193 21.5513L16.3678 22.8125L18.1193 24.0737C18.1426 24.0905 18.1616 24.111 18.1751 24.1339C18.1886 24.1568 18.1963 24.1817 18.1978 24.2071C18.1993 24.2325 18.1945 24.2579 18.1838 24.2818C18.173 24.3056 18.1566 24.3275 18.1353 24.3461L17.294 25.0803ZM19.4981 26.8549L18.3185 26.5747C18.2594 26.5607 18.2095 26.528 18.1799 26.4839C18.1502 26.4398 18.1432 26.3878 18.1603 26.3394L20.8003 18.8995C20.8175 18.8511 20.8574 18.8103 20.9113 18.7861C20.9653 18.7618 21.0287 18.756 21.0878 18.7701L22.2674 19.0503C22.2967 19.0572 22.324 19.0688 22.3478 19.0844C22.3716 19.1 22.3914 19.1192 22.406 19.1411C22.4207 19.1629 22.43 19.1869 22.4334 19.2117C22.4367 19.2365 22.434 19.2616 22.4256 19.2855L19.7856 26.7255C19.7771 26.7494 19.7629 26.7718 19.7439 26.7913C19.7248 26.8107 19.7013 26.8269 19.6746 26.8389C19.6479 26.851 19.6186 26.8586 19.5883 26.8613C19.558 26.864 19.5274 26.8619 19.4981 26.8549ZM26.4071 22.951L23.6199 25.0889C23.5977 25.106 23.5716 25.1193 23.5431 25.1281C23.5145 25.1368 23.4842 25.141 23.4537 25.1402C23.4233 25.1394 23.3933 25.1337 23.3655 25.1234C23.3378 25.1131 23.3128 25.0984 23.2919 25.0803L22.4506 24.346C22.4293 24.3275 22.4129 24.3056 22.4021 24.2817C22.3914 24.2579 22.3866 24.2325 22.3881 24.2071C22.3896 24.1817 22.3973 24.1568 22.4108 24.1338C22.4243 24.1109 22.4433 24.0905 22.4666 24.0737L24.2182 22.8125L22.4666 21.5513C22.4433 21.5345 22.4243 21.514 22.4108 21.4911C22.3974 21.4682 22.3896 21.4433 22.3882 21.4179C22.3867 21.3925 22.3914 21.3671 22.4022 21.3432C22.4129 21.3194 22.4294 21.2975 22.4506 21.2789L23.292 20.5447C23.3128 20.5265 23.3378 20.5119 23.3656 20.5016C23.3934 20.4913 23.4233 20.4856 23.4538 20.4848C23.4842 20.484 23.5146 20.4881 23.5431 20.4969C23.5716 20.5057 23.5977 20.519 23.62 20.5361L26.4072 22.674C26.4303 22.6917 26.4488 22.7132 26.4614 22.737C26.474 22.7608 26.4805 22.7865 26.4805 22.8125C26.4805 22.8385 26.474 22.8641 26.4613 22.888C26.4487 22.9118 26.4303 22.9332 26.4071 22.951Z" fill="#767676"/>
</g>
<defs>
<clipPath id="clip0_2_590">
<rect width="16.5" height="18" fill="white" transform="translate(12 11)"/>
</clipPath>
</defs>
</svg>
