<svg width="13" height="12" viewBox="0 0 13 12" fill="none" xmlns="http://www.w3.org/2000/svg">
<path d="M6.09601 0.0551758C7.74606 0.0551758 7.95193 0.0607185 8.59932 0.088432C9.2461 0.116145 9.6864 0.208709 10.0739 0.346168C10.4747 0.486953 10.8123 0.677621 11.15 0.985242C11.4588 1.26232 11.6978 1.59748 11.8502 1.96741C12.0002 2.32048 12.1023 2.72288 12.1326 3.31318C12.1612 3.90403 12.1691 4.09193 12.1691 5.59788C12.1691 7.10383 12.163 7.29173 12.1326 7.88258C12.1023 8.47288 12.0002 8.87473 11.8502 9.22835C11.6982 9.59848 11.4592 9.93373 11.15 10.2105C10.8463 10.4923 10.4791 10.7103 10.0739 10.8496C9.68701 10.9865 9.2461 11.0796 8.59932 11.1073C7.95193 11.1334 7.74606 11.1406 6.09601 11.1406C4.44596 11.1406 4.24008 11.135 3.59269 11.1073C2.94591 11.0796 2.50562 10.9865 2.11815 10.8496C1.71267 10.7107 1.34537 10.4926 1.04201 10.2105C0.733137 9.93349 0.494177 9.59831 0.341785 9.22835C0.191173 8.87528 0.0897528 8.47288 0.0593875 7.88258C0.0308442 7.29173 0.0229492 7.10383 0.0229492 5.59788C0.0229492 4.09193 0.0290222 3.90403 0.0593875 3.31318C0.0897528 2.72233 0.191173 2.32103 0.341785 1.96741C0.493755 1.59726 0.732771 1.262 1.04201 0.985242C1.34546 0.703246 1.71273 0.48514 2.11815 0.346168C2.50562 0.208709 2.94531 0.116145 3.59269 0.088432C4.24008 0.0623813 4.44596 0.0551758 6.09601 0.0551758ZM6.09601 2.82653C5.29067 2.82653 4.51832 3.11851 3.94886 3.63824C3.3794 4.15797 3.05948 4.86287 3.05948 5.59788C3.05948 6.33289 3.3794 7.03779 3.94886 7.55752C4.51832 8.07725 5.29067 8.36923 6.09601 8.36923C6.90135 8.36923 7.6737 8.07725 8.24316 7.55752C8.81262 7.03779 9.13254 6.33289 9.13254 5.59788C9.13254 4.86287 8.81262 4.15797 8.24316 3.63824C7.6737 3.11851 6.90135 2.82653 6.09601 2.82653ZM10.0435 2.68796C10.0435 2.50421 9.96352 2.32798 9.82115 2.19805C9.67879 2.06812 9.4857 1.99512 9.28436 1.99512C9.08303 1.99512 8.88994 2.06812 8.74758 2.19805C8.60521 2.32798 8.52523 2.50421 8.52523 2.68796C8.52523 2.87171 8.60521 3.04794 8.74758 3.17787C8.88994 3.3078 9.08303 3.3808 9.28436 3.3808C9.4857 3.3808 9.67879 3.3078 9.82115 3.17787C9.96352 3.04794 10.0435 2.87171 10.0435 2.68796ZM6.09601 3.93507C6.57921 3.93507 7.04262 4.11026 7.3843 4.42209C7.72597 4.73393 7.91793 5.15688 7.91793 5.59788C7.91793 6.03889 7.72597 6.46183 7.3843 6.77367C7.04262 7.0855 6.57921 7.26069 6.09601 7.26069C5.61281 7.26069 5.14939 7.0855 4.80772 6.77367C4.46604 6.46183 4.27409 6.03889 4.27409 5.59788C4.27409 5.15688 4.46604 4.73393 4.80772 4.42209C5.14939 4.11026 5.61281 3.93507 6.09601 3.93507Z" fill="#2B2B2B"/>
</svg>
