<svg width="13" height="11" viewBox="0 0 13 11" fill="none" xmlns="http://www.w3.org/2000/svg">
<path d="M3.22854 1.71798C3.22838 2.01199 3.10026 2.29389 2.87236 2.50168C2.64446 2.70946 2.33546 2.82612 2.01332 2.82597C1.69119 2.82582 1.38231 2.70889 1.15464 2.50089C0.926969 2.2929 0.799155 2.01088 0.799317 1.71687C0.799478 1.42287 0.9276 1.14097 1.1555 0.933179C1.3834 0.725391 1.6924 0.60874 2.01454 0.608887C2.33667 0.609034 2.64555 0.725967 2.87322 0.933963C3.10089 1.14196 3.2287 1.42398 3.22854 1.71798ZM3.26498 3.64684H0.835755V10.5863H3.26498V3.64684ZM7.10315 3.64684H4.68607V10.5863H7.07886V6.94475C7.07886 4.91612 9.97571 4.72767 9.97571 6.94475V10.5863H12.3746V6.19095C12.3746 2.7711 8.08699 2.89858 7.07886 4.57802L7.10315 3.64684Z" fill="#2B2B2B"/>
</svg>
