<svg width="13" height="12" viewBox="0 0 13 12" fill="none" xmlns="http://www.w3.org/2000/svg">
<path d="M11.3589 5.36065C11.3091 4.48818 10.9766 3.64885 10.4036 2.94902C10.229 3.12064 10.0424 3.28172 9.84489 3.43124C9.23815 3.8912 8.56013 4.26663 7.83289 4.54532C7.93431 4.73932 8.02723 4.92721 8.10921 5.10458V5.10624C8.13235 5.1558 8.15462 5.20569 8.17602 5.2559C9.09548 5.16167 10.0647 5.19603 11.0042 5.31188C11.1293 5.3274 11.2472 5.34402 11.3589 5.36065ZM5.65934 1.23134C6.25118 1.99245 6.79695 2.78254 7.29421 3.59807C8.03694 3.33091 8.65093 2.99392 9.14528 2.61868C9.31687 2.4896 9.4784 2.34977 9.62869 2.2002C8.75477 1.52938 7.64906 1.16224 6.50714 1.16372C6.22294 1.16354 5.93927 1.18598 5.65934 1.23078V1.23134ZM1.80234 4.48768C2.21605 4.47815 2.62928 4.45541 3.04125 4.4195C4.03701 4.33821 5.02427 4.18588 5.99397 3.96389C5.48718 3.16032 4.94002 2.37852 4.35424 1.62099C3.72855 1.90389 3.17683 2.3063 2.73653 2.80091C2.29622 3.29553 1.97762 3.87079 1.80234 4.48768ZM2.73152 8.38863C2.96715 8.07436 3.27688 7.72074 3.68803 7.33607C4.57105 6.51021 5.61319 5.86726 6.8193 5.51252L6.85695 5.50255C6.75674 5.30079 6.66261 5.12065 6.56787 4.95105C5.45286 5.24758 4.27833 5.43271 3.10805 5.5286C2.53718 5.57571 2.02522 5.59622 1.64869 5.59954C1.64762 6.6153 2.03026 7.60033 2.73213 8.38863H2.73152ZM8.3321 9.7078C8.0979 8.62988 7.76639 7.57149 7.34097 6.54347C6.12515 6.94642 5.15649 7.53561 4.40768 8.23842C4.10549 8.51688 3.83731 8.82446 3.60786 9.15574C4.44522 9.72597 5.46238 10.0334 6.50714 10.032C7.13261 10.0329 7.75234 9.92313 8.3321 9.7089V9.7078ZM9.46958 9.11195C10.4177 8.4467 11.0637 7.48556 11.2836 6.41266C11.0771 6.36554 10.8154 6.31843 10.5275 6.28185C9.88749 6.19773 9.23806 6.19158 8.59627 6.26356C8.95766 7.19409 9.24943 8.14592 9.46958 9.11251V9.11195ZM6.50714 11.1406C3.15299 11.1406 0.434082 8.65912 0.434082 5.59788C0.434082 2.53664 3.15299 0.0551758 6.50714 0.0551758C9.86129 0.0551758 12.5802 2.53664 12.5802 5.59788C12.5802 8.65912 9.86129 11.1406 6.50714 11.1406Z" fill="#2B2B2B"/>
</svg>
