<svg width="13" height="10" viewBox="0 0 13 10" fill="none" xmlns="http://www.w3.org/2000/svg">
<path d="M12.6996 1.54863C12.9772 2.53634 12.9772 4.59823 12.9772 4.59823C12.9772 4.59823 12.9772 6.66011 12.6996 7.64782C12.5454 8.19378 12.0941 8.62334 11.5227 8.76856C10.4848 9.03239 6.90411 9.03239 6.90411 9.03239C6.90411 9.03239 3.32526 9.03239 2.28555 8.76856C1.71165 8.62112 1.26103 8.19212 1.10859 7.64782C0.831055 6.66011 0.831055 4.59823 0.831055 4.59823C0.831055 4.59823 0.831055 2.53634 1.10859 1.54863C1.26285 1.00267 1.71408 0.573114 2.28555 0.427895C3.32526 0.164062 6.90411 0.164062 6.90411 0.164062C6.90411 0.164062 10.4848 0.164062 11.5227 0.427895C12.0966 0.575331 12.5472 1.00434 12.6996 1.54863ZM5.6895 6.53817L9.33334 4.59823L5.6895 2.65828V6.53817Z" fill="#2B2B2B"/>
</svg>
