<svg width="13" height="11" viewBox="0 0 13 11" fill="none" xmlns="http://www.w3.org/2000/svg">
<path d="M12.8704 2.08171C12.4068 2.26888 11.9151 2.39181 11.4117 2.44642C11.9423 2.15678 12.3395 1.70093 12.5291 1.16384C12.0311 1.43432 11.4852 1.62388 10.9161 1.72642C10.5339 1.35317 10.0272 1.10562 9.47494 1.02227C8.92266 0.938919 8.35567 1.02443 7.86213 1.26552C7.36858 1.50661 6.97614 1.88976 6.74581 2.35541C6.51547 2.82105 6.46015 3.34311 6.58844 3.84041C5.57856 3.79421 4.59061 3.5547 3.68873 3.13741C2.78686 2.72012 1.99122 2.13439 1.35347 1.41825C1.12772 1.77212 1.0091 2.1744 1.00973 2.58388C1.00973 3.38757 1.45792 4.09759 2.13932 4.5133C1.73607 4.50171 1.3417 4.40232 0.989083 4.22341V4.25223C0.989205 4.78749 1.19215 5.30624 1.5635 5.72053C1.93486 6.13482 2.45177 6.41914 3.02659 6.5253C2.65226 6.61788 2.25975 6.63153 1.87879 6.5652C2.04086 7.02593 2.35674 7.42887 2.78221 7.71759C3.20768 8.00632 3.72143 8.16638 4.25153 8.17536C3.72468 8.553 3.12144 8.83216 2.4763 8.99688C1.83116 9.16161 1.15678 9.20866 0.491699 9.13536C1.65268 9.8168 3.00418 10.1786 4.38453 10.1774C9.05654 10.1774 11.6115 6.64502 11.6115 3.58157C11.6115 3.4818 11.6084 3.38092 11.6036 3.28226C12.1009 2.95423 12.5301 2.54786 12.871 2.08226L12.8704 2.08171Z" fill="#2B2B2B"/>
</svg>
